<?xml version="1.0" encoding="UTF-8" standalone="no"?>
<!DOCTYPE svg PUBLIC "-//W3C//DTD SVG 1.1//EN" "http://www.w3.org/Graphics/SVG/1.1/DTD/svg11.dtd">
<svg version="1.1" xmlns="http://www.w3.org/2000/svg" xmlns:xlink="http://www.w3.org/1999/xlink" preserveAspectRatio="xMidYMid meet" viewBox="0 0 640 640" width="640" height="640"><defs><path d="M485.7 103.23C470.57 89.07 457.8 72.13 447.99 53.17C442.25 42.1 431.53 35.26 419.91 35.26C399.93 35.26 240.07 35.26 220.08 35.26C208.46 35.26 197.74 42.1 192.01 53.17C192.01 53.17 192.01 53.17 192.01 53.17C182.18 72.13 169.42 89.07 154.3 103.23C153.92 103.59 150.88 106.43 150.5 106.79C127.32 128.49 113.98 160.2 113.98 193.6C113.98 223.2 113.98 459.99 113.98 489.59C113.98 520.86 137.13 546.22 165.68 546.22C196.54 546.22 443.46 546.22 474.32 546.22C502.87 546.22 526.02 520.86 526.02 489.59C526.02 459.99 526.02 223.19 526.02 193.59C526.02 160.2 512.67 128.48 489.5 106.79C488.74 106.08 486.08 103.59 485.7 103.23Z" id="fwnVbcWr1"></path><path d="M395.65 207.42C395.65 212.27 395.65 214.97 395.65 215.51C395.65 223.99 388.8 230.88 380.36 230.88C368.29 230.88 271.71 230.88 259.64 230.88C251.2 230.88 244.35 224 244.35 215.51C244.35 214.97 244.35 212.27 244.35 207.42C209.65 207.42 190.37 207.42 186.51 207.42C171.46 207.42 159.24 219.69 159.24 234.82C159.24 246.65 159.24 341.3 159.24 353.13C159.24 368.26 171.45 380.53 186.51 380.53C213.21 380.53 426.79 380.53 453.49 380.53C468.54 380.53 480.76 368.26 480.76 353.13C480.76 341.3 480.76 246.65 480.76 234.82C480.75 219.69 468.54 207.42 453.49 207.42C445.78 207.42 426.5 207.42 395.65 207.42Z" id="c5Grnp4KR"></path><path d="M395.65 198.66C395.65 203.52 395.65 206.21 395.65 206.75C395.65 215.24 388.8 222.12 380.36 222.12C368.29 222.12 271.71 222.12 259.64 222.12C251.2 222.12 244.35 215.24 244.35 206.75C244.35 206.21 244.35 203.52 244.35 198.66C209.65 198.66 190.37 198.66 186.51 198.66C171.46 198.66 159.24 210.93 159.24 226.06C159.24 237.89 159.24 332.54 159.24 344.37C159.24 359.51 171.45 371.78 186.51 371.78C213.21 371.78 426.79 371.78 453.49 371.78C468.54 371.78 480.76 359.51 480.76 344.37C480.76 332.54 480.76 237.89 480.76 226.06C480.75 210.93 468.54 198.66 453.49 198.66C445.78 198.66 426.5 198.66 395.65 198.66Z" id="aHTlmELyS"></path><path d="M222.83 460.62C222.83 478.27 208.6 492.58 191.04 492.58C173.48 492.58 159.25 478.27 159.25 460.62C159.25 442.97 173.48 428.67 191.04 428.67C208.6 428.67 222.83 442.97 222.83 460.62Z" id="a1dkdcQzL0"></path><path d="M480.75 460.62C480.75 478.27 466.52 492.58 448.96 492.58C431.4 492.58 417.17 478.27 417.17 460.62C417.17 442.97 431.4 428.67 448.96 428.67C466.52 428.67 480.75 442.97 480.75 460.62Z" id="f2Vp9PS0C"></path><path d="M222.83 452.2C222.83 469.85 208.6 484.15 191.04 484.15C173.48 484.15 159.25 469.85 159.25 452.2C159.25 434.55 173.48 420.24 191.04 420.24C208.6 420.24 222.83 434.55 222.83 452.2Z" id="c2UJZJaQ5M"></path><path d="M480.75 452.2C480.75 469.85 466.52 484.15 448.96 484.15C431.4 484.15 417.17 469.85 417.17 452.2C417.17 434.55 431.4 420.24 448.96 420.24C466.52 420.24 480.75 434.55 480.75 452.2Z" id="dVJkfS0vV"></path><path d="M269.43 229.4C255.58 229.4 244.35 218.18 244.35 204.33C244.35 204.33 244.35 204.33 244.35 204.33C244.35 190.48 255.58 179.25 269.43 179.25C279.54 179.25 360.46 179.25 370.57 179.25C384.42 179.25 395.65 190.48 395.65 204.33C395.65 204.33 395.65 204.33 395.65 204.33C395.65 218.18 384.42 229.4 370.57 229.4C350.34 229.4 279.54 229.4 269.43 229.4Z" id="eG8jeapHB"></path><path d="M269.43 222.12C255.58 222.12 244.35 210.89 244.35 197.04C244.35 197.04 244.35 197.04 244.35 197.04C244.35 183.19 255.58 171.97 269.43 171.97C279.54 171.97 360.46 171.97 370.57 171.97C384.42 171.97 395.65 183.19 395.65 197.04C395.65 197.04 395.65 197.04 395.65 197.04C395.65 210.89 384.42 222.12 370.57 222.12C350.34 222.12 279.54 222.12 269.43 222.12Z" id="bG3LsZPXb"></path><path d="M192.01 53.17C182.59 71.35 170.45 87.65 156.13 101.44C188.9 101.44 451.1 101.44 483.87 101.44C469.56 87.64 457.41 71.35 447.99 53.17C442.25 42.1 431.53 35.26 419.91 35.26C399.93 35.26 240.07 35.26 220.09 35.26C208.47 35.26 197.75 42.1 192.01 53.17C192.01 53.17 192.01 53.17 192.01 53.17Z" id="a8uqniaiuk"></path><path d="M455.94 198.78C455.14 198.71 454.32 198.66 453.49 198.66C449.63 198.66 430.35 198.66 395.65 198.66C395.65 203.52 395.65 206.21 395.65 206.75C395.65 215.24 388.8 222.12 380.36 222.12C377.88 222.12 365.49 222.12 343.19 222.12L194.31 371.77L283.85 371.77C387.1 267.98 444.47 210.32 455.94 198.78Z" id="c5f3EgrqoL"></path><path d="M244.35 206.75C244.35 206.21 244.35 203.51 244.35 198.66L241.34 198.66L159.25 281.18C159.25 319.09 159.25 340.16 159.25 344.37C159.25 351.78 162.2 358.5 166.95 363.43C176.32 354.01 223.18 306.91 307.53 222.12L259.64 222.12C249.45 217.53 244.35 212.41 244.35 206.75Z" id="a1Cy5pcouS"></path><path d="M421.82 32.08L422.77 32.15L423.71 32.24L424.65 32.37L425.58 32.52L426.51 32.7L427.43 32.9L428.35 33.13L429.25 33.39L430.15 33.67L431.04 33.97L431.93 34.31L432.8 34.66L433.66 35.04L434.51 35.45L435.36 35.88L436.19 36.33L437.01 36.8L437.82 37.3L438.61 37.82L439.39 38.37L440.16 38.93L440.92 39.52L441.66 40.13L442.39 40.76L443.11 41.41L443.8 42.08L444.49 42.78L445.15 43.49L445.8 44.22L446.44 44.97L447.05 45.75L447.65 46.54L448.23 47.35L448.79 48.18L449.33 49.02L449.85 49.89L450.35 50.77L450.84 51.67L450.92 51.84L451.01 52.01L451.1 52.18L451.19 52.35L451.28 52.52L451.37 52.69L451.46 52.86L451.55 53.03L451.64 53.2L451.73 53.37L451.82 53.54L451.91 53.71L452 53.88L452.09 54.05L452.18 54.21L452.27 54.38L452.36 54.55L452.45 54.72L452.54 54.89L452.63 55.05L452.73 55.22L452.82 55.39L452.91 55.56L453 55.72L453.09 55.89L453.18 56.06L453.28 56.22L453.37 56.39L453.46 56.56L453.56 56.72L453.65 56.89L453.74 57.06L453.83 57.22L453.93 57.39L454.02 57.55L454.11 57.72L454.21 57.88L454.3 58.05L454.4 58.22L454.49 58.38L454.54 58.48L454.6 58.57L454.66 58.67L454.71 58.77L454.77 58.86L454.82 58.96L454.88 59.06L454.94 59.15L454.99 59.25L455.05 59.35L455.11 59.44L455.16 59.54L455.22 59.63L455.28 59.73L455.33 59.83L455.39 59.92L455.45 60.02L455.51 60.11L455.56 60.21L455.62 60.3L455.68 60.4L455.74 60.5L455.79 60.59L455.85 60.69L455.91 60.78L455.97 60.88L456.02 60.97L456.08 61.07L456.14 61.16L456.2 61.26L456.37 61.55L456.43 61.64L456.49 61.74L456.54 61.83L456.6 61.93L456.66 62.02L456.72 62.12L456.77 62.21L456.81 62.28L456.85 62.35L456.89 62.41L456.93 62.48L456.97 62.54L457.01 62.61L457.05 62.67L457.09 62.74L457.13 62.8L457.17 62.87L457.2 62.93L457.24 63L457.28 63.07L457.4 63.26L457.44 63.33L457.48 63.39L457.51 63.46L457.55 63.52L457.59 63.59L457.63 63.66L457.67 63.72L457.71 63.79L457.75 63.85L457.79 63.92L457.83 63.98L457.87 64.05L457.91 64.11L457.94 64.18L457.98 64.24L458.02 64.31L458.06 64.37L458.1 64.44L458.14 64.5L458.18 64.57L458.22 64.63L458.26 64.7L458.3 64.76L458.34 64.83L458.42 64.95L458.5 65.08L458.58 65.21L458.66 65.33L458.74 65.46L458.82 65.58L458.9 65.71L458.98 65.84L459.06 65.96L459.14 66.09L459.22 66.21L459.3 66.34L459.38 66.46L459.47 66.59L459.55 66.71L459.63 66.84L459.71 66.96L459.79 67.09L459.87 67.21L459.96 67.34L460.04 67.46L460.12 67.59L460.2 67.71L460.28 67.84L460.37 67.96L460.45 68.09L460.53 68.21L460.61 68.34L460.7 68.46L460.78 68.58L460.86 68.71L460.94 68.83L461.03 68.96L461.11 69.08L461.19 69.2L461.27 69.33L461.36 69.45L461.44 69.58L461.52 69.7L461.61 69.82L461.63 69.85L461.65 69.88L461.67 69.91L461.69 69.94L461.71 69.97L461.73 70L461.75 70.03L461.77 70.06L461.79 70.09L461.81 70.12L461.83 70.15L461.85 70.18L461.87 70.21L461.89 70.24L461.92 70.3L461.96 70.37L462.06 70.52L462.1 70.58L462.14 70.64L462.16 70.67L462.18 70.7L462.2 70.73L462.22 70.76L462.24 70.79L462.26 70.82L462.28 70.85L462.3 70.88L462.32 70.91L462.34 70.94L462.36 70.97L462.38 71L462.4 71.03L462.5 71.17L462.59 71.31L462.69 71.45L462.79 71.59L462.88 71.73L462.98 71.87L463.08 72.01L463.17 72.15L463.27 72.29L463.37 72.43L463.46 72.57L463.56 72.71L463.66 72.85L463.76 72.99L463.86 73.13L463.95 73.26L464.05 73.4L464.15 73.54L464.25 73.68L464.35 73.82L464.45 73.96L464.54 74.1L464.64 74.24L464.74 74.37L464.84 74.51L464.94 74.65L465.04 74.79L465.14 74.93L465.24 75.06L465.34 75.2L465.44 75.34L465.54 75.48L465.64 75.61L465.74 75.75L465.84 75.89L465.94 76.02L466.04 76.16L466.14 76.3L466.24 76.43L466.34 76.57L466.35 76.58L466.42 76.67L466.45 76.72L466.48 76.76L466.51 76.8L466.54 76.84L466.55 76.87L466.58 76.9L466.6 76.93L466.63 76.97L466.65 77L466.67 77.02L466.78 77.17L466.89 77.32L467 77.46L467.11 77.61L467.22 77.76L467.33 77.9L467.44 78.05L467.55 78.2L467.66 78.34L467.77 78.49L467.88 78.63L467.99 78.78L468.1 78.92L468.21 79.07L468.32 79.21L468.43 79.36L468.54 79.5L468.66 79.65L468.77 79.79L468.88 79.94L468.99 80.08L469.1 80.23L469.22 80.37L469.33 80.51L469.44 80.66L469.56 80.8L469.67 80.95L469.78 81.09L469.89 81.23L470.01 81.38L470.12 81.52L470.23 81.66L470.35 81.81L470.46 81.95L470.58 82.09L470.69 82.23L470.81 82.38L470.92 82.52L471.03 82.66L471.15 82.8L471.15 82.8L471.16 82.81L471.5 83.24L471.85 83.67L472.21 84.1L472.56 84.52L472.91 84.95L473.27 85.37L473.63 85.8L473.98 86.22L474.34 86.64L474.7 87.06L475.07 87.48L475.43 87.89L475.79 88.31L476.16 88.73L476.52 89.14L476.89 89.55L477.26 89.96L477.63 90.37L478 90.78L478.38 91.19L478.75 91.6L479.13 92L479.5 92.41L479.88 92.81L480.26 93.21L480.64 93.62L481.02 94.02L481.4 94.41L481.79 94.81L482.17 95.21L482.56 95.6L482.95 96L483.34 96.39L483.73 96.78L484.12 97.17L484.51 97.56L484.9 97.95L485.3 98.33L485.7 98.72L486.09 99.1L486.14 99.15L486.18 99.19L486.23 99.23L486.27 99.28L486.32 99.32L486.36 99.37L486.41 99.41L486.45 99.45L486.5 99.5L486.54 99.54L486.59 99.58L486.63 99.63L486.68 99.67L486.72 99.72L486.77 99.76L486.81 99.81L486.86 99.85L486.99 99.98L487.03 100.03L487.08 100.07L487.12 100.12L487.17 100.16L487.21 100.2L487.26 100.25L487.3 100.29L487.35 100.34L487.39 100.38L487.44 100.42L487.48 100.47L487.53 100.51L487.57 100.56L487.62 100.6L487.66 100.64L487.71 100.69L487.75 100.73L487.8 100.77L487.85 100.81L487.89 100.86L491.69 104.42L493.46 106.11L495.19 107.84L496.89 109.61L498.54 111.41L500.16 113.25L501.73 115.13L503.27 117.03L504.76 118.97L506.21 120.94L507.62 122.94L509 124.98L510.32 127.04L511.61 129.13L512.85 131.25L514.06 133.39L515.21 135.57L516.33 137.76L517.4 139.99L518.43 142.23L519.41 144.5L520.35 146.8L521.24 149.11L522.09 151.45L522.89 153.8L523.65 156.18L524.36 158.57L525.02 160.98L525.64 163.41L526.2 165.86L526.72 168.32L527.2 170.79L527.62 173.28L528 175.78L528.32 178.29L528.6 180.82L528.83 183.36L529.01 185.9L529.13 188.46L529.21 191.02L529.24 193.59L529.24 489.59L529.19 492.06L529.05 494.5L528.83 496.91L528.52 499.29L528.12 501.64L527.64 503.96L527.07 506.25L526.43 508.5L525.71 510.71L524.91 512.87L524.04 515L523.1 517.08L522.08 519.12L520.99 521.11L519.84 523.04L518.62 524.93L517.34 526.76L516 528.53L514.59 530.25L513.13 531.91L511.61 533.5L510.04 535.03L508.41 536.5L506.73 537.89L505 539.22L503.22 540.48L501.4 541.66L499.53 542.77L497.62 543.8L495.67 544.75L493.68 545.62L491.66 546.4L489.59 547.1L487.5 547.72L485.37 548.24L483.21 548.67L481.03 549.01L478.81 549.26L476.58 549.41L474.32 549.46L461.03 549.46L551.98 601.94L552.09 602.01L552.2 602.08L552.31 602.16L552.41 602.24L552.51 602.32L552.61 602.41L552.7 602.5L552.78 602.59L552.86 602.69L552.94 602.79L553.02 602.89L553.08 602.99L553.15 603.1L553.21 603.21L553.27 603.32L553.32 603.43L553.37 603.55L553.41 603.66L553.45 603.78L553.48 603.9L553.51 604.02L553.54 604.14L553.56 604.26L553.58 604.39L553.59 604.51L553.59 604.63L553.6 604.76L553.59 604.88L553.58 605.01L553.57 605.13L553.55 605.26L553.53 605.38L553.5 605.51L553.47 605.63L553.43 605.75L553.39 605.87L553.34 606L553.29 606.11L553.23 606.23L553.16 606.35L553.12 606.43L553.07 606.5L553.02 606.58L552.97 606.65L552.92 606.72L552.87 606.79L552.81 606.85L552.75 606.92L552.69 606.98L552.63 607.04L552.57 607.1L552.51 607.16L552.44 607.22L552.38 607.27L552.31 607.32L552.24 607.37L552.17 607.42L552.1 607.47L552.03 607.51L551.96 607.55L551.89 607.59L551.81 607.63L551.74 607.67L551.66 607.7L551.59 607.74L551.51 607.77L551.43 607.79L551.35 607.82L551.27 607.84L551.19 607.87L551.11 607.89L551.03 607.91L550.95 607.92L550.87 607.94L550.78 607.95L550.7 607.96L550.62 607.96L550.53 607.97L550.45 607.97L550.37 607.97L550.33 607.97L550.29 607.97L550.25 607.97L550.2 607.97L550.16 607.97L550.12 607.97L550.08 607.96L550.04 607.96L550 607.95L549.96 607.95L549.92 607.94L549.88 607.94L549.84 607.93L549.8 607.92L549.76 607.92L549.72 607.91L549.67 607.9L549.63 607.89L549.59 607.88L549.55 607.87L549.51 607.86L549.47 607.85L549.43 607.84L549.39 607.82L549.35 607.81L549.31 607.8L549.27 607.78L549.23 607.77L549.19 607.75L549.15 607.74L549.12 607.72L549.08 607.7L549.04 607.69L549 607.67L548.96 607.65L548.92 607.63L548.88 607.61L548.84 607.59L548.81 607.57L548.77 607.55L448.1 549.45L191.88 549.45L91.21 607.55L91.17 607.57L91.14 607.59L91.1 607.61L91.06 607.63L91.02 607.65L90.98 607.67L90.94 607.69L90.9 607.7L90.87 607.72L90.83 607.74L90.79 607.75L90.75 607.77L90.71 607.78L90.67 607.8L90.63 607.81L90.59 607.82L90.55 607.84L90.51 607.85L90.47 607.86L90.43 607.87L90.39 607.88L90.35 607.89L90.31 607.9L90.27 607.91L90.22 607.92L90.18 607.92L90.14 607.93L90.1 607.94L90.06 607.94L90.02 607.95L89.98 607.95L89.94 607.96L89.9 607.96L89.86 607.97L89.82 607.97L89.78 607.97L89.74 607.97L89.69 607.97L89.65 607.97L89.61 607.97L89.53 607.97L89.45 607.97L89.36 607.96L89.28 607.96L89.2 607.95L89.11 607.94L89.03 607.92L88.95 607.91L88.87 607.89L88.79 607.87L88.71 607.84L88.63 607.82L88.55 607.79L88.47 607.77L88.39 607.74L88.32 607.7L88.24 607.67L88.16 607.63L88.09 607.59L88.02 607.55L87.95 607.51L87.87 607.47L87.8 607.42L87.74 607.37L87.67 607.32L87.6 607.27L87.54 607.22L87.47 607.16L87.41 607.1L87.35 607.04L87.29 606.98L87.23 606.92L87.17 606.85L87.12 606.79L87.06 606.72L87.01 606.65L86.96 606.58L86.91 606.5L86.86 606.43L86.82 606.35L86.75 606.23L86.69 606.11L86.64 605.99L86.59 605.87L86.55 605.75L86.51 605.63L86.48 605.5L86.45 605.38L86.43 605.26L86.41 605.13L86.4 605.01L86.39 604.88L86.39 604.75L86.39 604.63L86.4 604.51L86.41 604.38L86.43 604.26L86.45 604.14L86.47 604.01L86.5 603.89L86.54 603.77L86.58 603.66L86.62 603.54L86.67 603.43L86.72 603.31L86.78 603.2L86.84 603.09L86.9 602.99L86.97 602.88L87.05 602.78L87.12 602.68L87.21 602.58L87.29 602.49L87.38 602.4L87.48 602.31L87.57 602.23L87.68 602.15L87.78 602.07L87.89 602L88.01 601.93L178.96 549.45L165.67 549.45L163.41 549.4L161.17 549.25L158.96 549.01L156.77 548.67L154.62 548.23L152.49 547.71L150.39 547.1L148.33 546.4L146.3 545.61L144.31 544.74L142.36 543.79L140.45 542.76L138.59 541.65L136.76 540.47L134.99 539.22L133.26 537.89L131.58 536.49L129.95 535.02L128.37 533.49L126.85 531.9L125.39 530.24L123.99 528.53L122.64 526.75L121.36 524.92L120.14 523.04L118.99 521.1L117.91 519.11L116.89 517.08L115.95 514.99L115.07 512.87L114.28 510.7L113.56 508.49L112.91 506.24L112.35 503.96L111.87 501.64L111.47 499.29L111.16 496.9L110.93 494.49L110.8 492.05L110.75 489.59L110.75 193.59L110.78 191.02L110.85 188.46L110.98 185.9L111.16 183.35L111.39 180.82L111.66 178.29L111.99 175.78L112.37 173.28L112.79 170.79L113.26 168.31L113.78 165.85L114.35 163.41L114.97 160.98L115.63 158.57L116.34 156.17L117.1 153.8L117.9 151.44L118.74 149.11L119.64 146.79L120.58 144.5L121.56 142.23L122.59 139.99L123.66 137.76L124.77 135.57L125.93 133.39L127.13 131.25L128.38 129.13L129.66 127.04L130.99 124.98L132.36 122.94L133.77 120.94L135.23 118.97L136.72 117.03L138.26 115.13L139.83 113.25L141.45 111.41L143.1 109.61L144.79 107.84L146.52 106.11L148.29 104.42L152.1 100.86L152.14 100.81L152.19 100.77L152.24 100.72L152.28 100.68L152.33 100.64L152.38 100.59L152.43 100.55L152.47 100.5L152.52 100.46L152.57 100.41L152.61 100.37L152.66 100.32L152.7 100.28L152.75 100.23L152.8 100.18L152.84 100.14L152.89 100.09L152.93 100.05L152.98 100L153.03 99.96L153.07 99.91L153.12 99.87L153.21 99.78L153.25 99.73L153.3 99.68L153.35 99.64L153.39 99.59L153.44 99.55L153.48 99.5L153.53 99.46L153.58 99.41L153.62 99.37L153.67 99.32L153.71 99.28L153.76 99.23L153.81 99.19L153.85 99.14L153.9 99.1L153.95 99.05L154.34 98.67L154.74 98.29L155.13 97.9L155.52 97.51L155.91 97.13L156.3 96.74L156.69 96.35L157.08 95.96L157.46 95.57L157.85 95.17L158.23 94.78L158.61 94.38L158.99 93.99L159.37 93.59L159.75 93.19L160.13 92.79L160.5 92.39L160.88 91.98L161.25 91.58L161.62 91.17L162 90.77L162.37 90.36L162.73 89.95L163.1 89.54L163.47 89.13L163.83 88.72L164.2 88.31L164.56 87.89L164.92 87.48L165.28 87.06L165.64 86.64L166 86.22L166.35 85.8L166.71 85.38L167.06 84.96L167.41 84.53L167.77 84.11L168.12 83.68L168.47 83.26L168.81 82.83L168.82 82.82L168.83 82.81L168.84 82.8L168.85 82.79L168.86 82.77L168.88 82.74L168.89 82.73L168.9 82.72L169.02 82.58L169.13 82.44L169.24 82.3L169.35 82.16L169.46 82.02L169.58 81.88L169.69 81.74L169.8 81.6L169.91 81.46L170.02 81.32L170.13 81.18L170.25 81.04L170.36 80.89L170.47 80.75L170.58 80.61L170.69 80.47L170.8 80.33L170.91 80.19L171.02 80.05L171.13 79.9L171.24 79.76L171.35 79.62L171.46 79.48L171.57 79.33L171.68 79.19L171.79 79.05L171.9 78.91L172.01 78.76L172.12 78.62L172.22 78.48L172.33 78.34L172.44 78.19L172.55 78.05L172.66 77.91L172.77 77.76L172.87 77.62L172.98 77.47L173.09 77.33L173.2 77.19L173.31 77.04L173.37 76.95L173.42 76.88L173.45 76.84L173.47 76.81L173.51 76.76L173.52 76.75L173.55 76.7L173.58 76.66L173.61 76.61L173.63 76.58L173.66 76.54L173.69 76.51L173.71 76.48L173.73 76.45L173.83 76.32L173.92 76.19L174.02 76.05L174.12 75.92L174.22 75.79L174.32 75.65L174.41 75.52L174.51 75.39L174.61 75.25L174.71 75.12L174.8 74.98L174.9 74.85L175 74.71L175.1 74.58L175.19 74.45L175.29 74.31L175.39 74.18L175.48 74.04L175.58 73.91L175.68 73.77L175.77 73.64L175.87 73.5L175.96 73.37L176.06 73.23L176.15 73.1L176.25 72.96L176.35 72.83L176.44 72.69L176.54 72.55L176.63 72.42L176.73 72.28L176.82 72.15L176.92 72.01L177.01 71.87L177.1 71.74L177.2 71.6L177.29 71.46L177.39 71.33L177.48 71.19L177.57 71.05L177.6 71.02L177.62 70.98L177.65 70.95L177.67 70.91L177.7 70.87L177.72 70.84L177.74 70.8L177.77 70.77L177.79 70.73L177.82 70.7L177.84 70.66L177.86 70.62L177.89 70.59L177.91 70.55L177.93 70.52L177.96 70.48L177.98 70.44L178 70.41L178.03 70.37L178.05 70.34L178.07 70.3L178.1 70.26L178.17 70.15L178.21 70.08L178.26 70.01L178.28 69.97L178.31 69.94L178.33 69.9L178.36 69.87L178.38 69.83L178.4 69.79L178.43 69.76L178.45 69.72L178.47 69.68L178.5 69.65L178.52 69.61L178.6 69.49L178.68 69.38L178.76 69.26L178.84 69.14L178.92 69.02L179 68.9L179.08 68.78L179.15 68.66L179.23 68.55L179.31 68.43L179.39 68.31L179.47 68.19L179.55 68.07L179.63 67.95L179.71 67.83L179.78 67.71L179.86 67.59L179.94 67.48L180.02 67.36L180.1 67.24L180.17 67.12L180.25 67L180.33 66.88L180.41 66.76L180.49 66.64L180.56 66.52L180.64 66.4L180.72 66.28L180.8 66.16L180.87 66.04L180.95 65.92L181.03 65.8L181.1 65.68L181.18 65.56L181.26 65.44L181.33 65.32L181.41 65.2L181.49 65.08L181.56 64.96L181.64 64.84L181.68 64.77L181.73 64.7L181.77 64.63L181.81 64.56L181.86 64.48L181.9 64.41L181.94 64.34L181.99 64.27L182.03 64.2L182.07 64.13L182.12 64.06L182.16 63.99L182.2 63.92L182.25 63.84L182.29 63.77L182.33 63.7L182.38 63.63L182.42 63.56L182.46 63.49L182.5 63.42L182.55 63.34L182.59 63.27L182.63 63.2L182.67 63.13L182.72 63.06L182.76 62.99L182.8 62.91L182.93 62.7L182.97 62.63L183.01 62.56L183.06 62.49L183.1 62.41L183.14 62.34L183.18 62.27L183.23 62.2L183.27 62.13L183.31 62.06L183.35 61.98L183.41 61.89L183.46 61.8L183.52 61.71L183.57 61.63L183.63 61.54L183.68 61.45L183.73 61.36L183.84 61.18L183.9 61.09L183.95 61L184.01 60.91L184.06 60.82L184.11 60.73L184.17 60.64L184.22 60.55L184.28 60.46L184.33 60.37L184.38 60.28L184.44 60.19L184.49 60.1L184.55 60.01L184.6 59.92L184.65 59.83L184.71 59.74L184.76 59.65L184.82 59.56L184.87 59.47L184.92 59.38L184.98 59.29L185.03 59.2L185.08 59.11L185.14 59.02L185.19 58.93L185.24 58.84L185.29 58.74L185.35 58.65L185.4 58.56L185.45 58.47L185.5 58.38L185.6 58.22L185.69 58.05L185.79 57.88L185.88 57.72L185.97 57.55L186.07 57.39L186.16 57.22L186.25 57.05L186.35 56.89L186.44 56.72L186.53 56.55L186.62 56.39L186.72 56.22L186.81 56.05L186.9 55.89L186.99 55.72L187.09 55.55L187.18 55.38L187.27 55.22L187.36 55.05L187.45 54.88L187.54 54.71L187.63 54.54L187.72 54.38L187.82 54.21L187.91 54.04L188 53.87L188.09 53.7L188.18 53.53L188.27 53.36L188.36 53.2L188.45 53.03L188.54 52.86L188.63 52.69L188.71 52.52L188.8 52.35L188.89 52.18L188.98 52.01L189.07 51.84L189.16 51.67L189.36 51.29L189.56 50.92L189.76 50.55L189.97 50.19L190.18 49.83L190.39 49.47L190.61 49.11L190.83 48.76L191.06 48.41L191.29 48.06L191.52 47.72L191.75 47.38L191.99 47.05L192.23 46.71L192.48 46.39L192.73 46.06L192.98 45.74L193.23 45.42L193.49 45.1L193.75 44.79L194.01 44.48L194.28 44.17L194.55 43.87L194.82 43.57L195.09 43.28L195.37 42.98L195.65 42.69L195.93 42.41L196.22 42.13L196.51 41.85L196.8 41.57L197.09 41.3L197.39 41.03L197.69 40.76L197.99 40.5L198.29 40.24L198.6 39.99L198.9 39.74L199.21 39.49L199.53 39.24L199.78 39.05L200.04 38.85L200.3 38.66L200.56 38.47L200.82 38.29L201.08 38.1L201.34 37.92L201.61 37.74L201.87 37.56L202.14 37.39L202.41 37.22L202.68 37.05L202.95 36.88L203.22 36.71L203.5 36.55L203.77 36.39L204.05 36.23L204.33 36.08L204.61 35.93L204.89 35.78L205.17 35.63L205.45 35.49L205.74 35.35L206.02 35.21L206.31 35.07L206.6 34.94L206.88 34.81L207.17 34.68L207.47 34.56L207.76 34.44L208.05 34.32L208.35 34.2L208.64 34.09L208.94 33.98L209.24 33.87L209.53 33.77L209.83 33.67L210.13 33.57L210.44 33.47L210.74 33.38L210.76 33.38L210.79 33.37L210.81 33.36L210.84 33.36L210.86 33.35L210.88 33.34L210.91 33.34L210.93 33.33L210.96 33.33L210.98 33.32L211.01 33.31L211.03 33.31L211.05 33.3L211.08 33.3L211.1 33.29L211.13 33.29L211.15 33.28L211.18 33.28L211.2 33.27L211.23 33.27L211.28 33.26L211.32 33.25L211.37 33.24L211.4 33.24L211.42 33.23L211.45 33.23L211.47 33.22L211.5 33.22L211.52 33.21L211.55 33.2L211.57 33.2L211.6 33.19L211.62 33.19L211.64 33.18L211.67 33.18L211.69 33.17L211.72 33.16L211.92 33.11L212.13 33.06L212.33 33.01L212.53 32.96L212.74 32.91L212.95 32.86L213.15 32.82L213.36 32.77L213.56 32.73L213.77 32.68L213.98 32.64L214.18 32.6L214.39 32.56L214.6 32.52L214.81 32.49L215.01 32.45L215.22 32.42L215.43 32.38L215.64 32.35L215.85 32.32L216.06 32.29L216.27 32.27L216.48 32.24L216.69 32.22L216.9 32.19L217.11 32.17L217.32 32.15L217.53 32.13L217.74 32.11L217.96 32.1L218.17 32.08L218.38 32.07L218.59 32.06L218.81 32.05L219.02 32.04L219.23 32.03L219.45 32.03L219.66 32.02L219.88 32.02L220.09 32.02L419.9 32.02L420.86 32.03L421.82 32.08ZM157.41 104.7L157.39 104.72L157.36 104.75L157.34 104.77L157.31 104.79L157.29 104.81L157.27 104.84L157.24 104.86L157.22 104.88L157.2 104.91L157.17 104.93L157.15 104.95L157.13 104.97L157.1 105L157.08 105.02L157.06 105.04L157.01 105.09L156.94 105.16L156.89 105.21L156.85 105.25L156.82 105.27L156.8 105.3L156.78 105.32L156.75 105.34L156.73 105.37L156.71 105.39L156.68 105.41L156.66 105.43L156.64 105.46L156.61 105.48L156.59 105.5L156.56 105.53L156.54 105.55L156.52 105.57L156.49 105.59L152.69 109.15L151.02 110.75L149.38 112.39L147.78 114.06L146.22 115.77L144.69 117.51L143.2 119.28L141.75 121.08L140.34 122.92L138.96 124.78L137.63 126.68L136.33 128.6L135.08 130.55L133.86 132.53L132.68 134.53L131.55 136.57L130.45 138.62L129.4 140.7L128.38 142.81L127.41 144.93L126.48 147.08L125.6 149.25L124.75 151.45L123.95 153.66L123.19 155.89L122.48 158.14L121.81 160.41L121.18 162.69L120.6 164.99L120.06 167.31L119.57 169.64L119.12 171.98L118.72 174.34L118.37 176.71L118.06 179.09L117.8 181.49L117.58 183.89L117.41 186.3L117.29 188.73L117.22 191.16L117.2 193.59L117.2 489.59L117.23 491.06L117.32 492.52L117.47 493.97L117.68 495.42L117.95 496.86L118.29 498.3L118.68 499.72L119.14 501.14L119.65 502.56L120.23 503.96L120.86 505.36L121.56 506.76L122.32 508.14L123.14 509.52L124.01 510.9L124.95 512.26L125.95 513.62L127.01 514.97L128.14 516.32L129.32 517.66L130.56 518.99L131.86 520.31L133.23 521.63L134.65 522.94L136.13 524.25L137.68 525.54L139.29 526.84L140.95 528.12L142.68 529.4L144.47 530.67L146.32 531.93L148.22 533.19L150.19 534.43L152.22 535.68L154.31 536.91L156.47 538.14L158.68 539.36L160.95 540.58L163.28 541.79L165.68 542.99L474.32 542.99L476.32 542.94L478.29 542.81L480.25 542.59L482.18 542.29L484.08 541.9L485.96 541.43L487.81 540.89L489.63 540.26L491.42 539.56L493.18 538.79L494.9 537.94L496.58 537.02L498.23 536.03L499.84 534.98L501.41 533.86L502.94 532.67L504.42 531.43L505.86 530.12L507.25 528.76L508.59 527.33L509.88 525.86L511.12 524.33L512.31 522.74L513.44 521.11L514.51 519.43L515.53 517.7L516.49 515.93L517.38 514.11L518.22 512.26L518.99 510.36L519.69 508.42L520.33 506.45L520.9 504.45L521.39 502.41L521.82 500.34L522.17 498.24L522.44 496.12L522.64 493.97L522.76 491.79L522.8 489.59L522.8 193.6L522.78 191.16L522.71 188.73L522.59 186.31L522.42 183.9L522.2 181.49L521.94 179.1L521.63 176.72L521.28 174.35L520.88 171.99L520.43 169.64L519.94 167.31L519.4 165L518.82 162.7L518.19 160.41L517.52 158.14L516.81 155.9L516.05 153.66L515.25 151.45L514.4 149.26L513.52 147.09L512.59 144.94L511.62 142.81L510.6 140.71L509.55 138.63L508.45 136.57L507.32 134.54L506.14 132.54L504.92 130.56L503.67 128.61L502.37 126.68L501.04 124.79L499.66 122.92L498.25 121.09L496.8 119.29L495.31 117.51L493.78 115.77L492.22 114.07L490.62 112.4L488.98 110.76L487.31 109.16L483.51 105.6L483.48 105.58L483.46 105.55L483.44 105.53L483.41 105.51L483.39 105.49L483.36 105.46L483.34 105.44L483.32 105.42L483.29 105.39L483.27 105.37L483.25 105.35L483.22 105.33L483.2 105.3L483.18 105.28L483.15 105.26L483.13 105.23L483.11 105.21L483.08 105.19L483.06 105.16L483.01 105.12L482.99 105.09L482.97 105.07L482.94 105.05L482.92 105.02L482.9 105L482.87 104.98L482.85 104.95L482.83 104.93L482.8 104.91L482.78 104.88L482.76 104.86L482.73 104.84L482.71 104.81L482.69 104.79L482.66 104.77L482.64 104.75L482.61 104.72L482.59 104.7L482.57 104.68L157.43 104.68L157.41 104.7ZM219.31 38.51L218.54 38.54L217.77 38.6L217 38.68L216.24 38.78L215.48 38.91L214.72 39.05L213.97 39.22L213.23 39.41L212.49 39.62L211.76 39.85L211.04 40.1L210.32 40.38L209.61 40.67L208.91 40.98L208.21 41.31L207.53 41.67L206.85 42.04L206.18 42.43L205.52 42.84L204.87 43.27L204.23 43.72L203.61 44.18L202.99 44.66L202.38 45.17L201.79 45.68L201.2 46.22L200.63 46.77L200.07 47.34L199.53 47.93L199 48.53L198.48 49.15L197.97 49.79L197.48 50.44L197.01 51.1L196.55 51.79L196.1 52.48L195.68 53.2L195.26 53.92L194.87 54.66L194.78 54.83L194.69 55L194.61 55.16L194.52 55.33L194.43 55.49L194.35 55.66L194.26 55.83L194.17 55.99L194.08 56.16L193.99 56.32L193.91 56.49L193.82 56.65L193.73 56.82L193.64 56.98L193.55 57.15L193.46 57.31L193.37 57.48L193.28 57.64L193.19 57.81L193.1 57.97L193.01 58.14L192.92 58.3L192.83 58.46L192.74 58.63L192.65 58.79L192.56 58.96L192.47 59.12L192.38 59.28L192.29 59.45L192.2 59.61L192.11 59.77L192.02 59.94L191.93 60.1L191.83 60.26L191.74 60.43L191.65 60.59L191.56 60.75L191.47 60.92L191.38 61.08L191.28 61.24L191.25 61.3L191.22 61.36L191.18 61.42L191.15 61.48L191.12 61.53L191.08 61.59L191.05 61.65L191.02 61.71L190.98 61.77L190.95 61.83L190.91 61.88L190.88 61.94L190.85 62L190.81 62.06L190.78 62.12L190.74 62.17L190.71 62.23L190.67 62.29L190.64 62.35L190.61 62.41L190.57 62.46L190.54 62.52L190.5 62.58L190.47 62.64L190.43 62.7L190.3 62.93L190.26 62.98L190.23 63.04L190.19 63.1L190.16 63.16L190.13 63.22L190.09 63.27L190.06 63.33L190.02 63.39L189.99 63.45L189.95 63.51L189.92 63.56L189.86 63.67L189.8 63.77L189.74 63.87L189.68 63.97L189.62 64.07L189.57 64.17L189.51 64.27L189.45 64.37L189.39 64.47L189.33 64.57L189.27 64.67L189.21 64.77L189.15 64.87L189.09 64.97L189.03 65.07L188.97 65.17L188.91 65.27L188.85 65.37L188.79 65.47L188.73 65.57L188.67 65.67L188.61 65.77L188.55 65.87L188.49 65.97L188.43 66.07L188.37 66.17L188.31 66.27L188.25 66.37L188.19 66.47L188.13 66.57L188.07 66.67L188.01 66.77L187.95 66.87L187.89 66.96L187.83 67.06L187.77 67.16L187.71 67.26L187.65 67.36L187.59 67.46L187.53 67.56L187.48 67.63L187.44 67.71L187.39 67.78L187.34 67.85L187.3 67.93L187.25 68L187.21 68.07L187.16 68.15L187.11 68.22L187.07 68.29L187.02 68.37L186.98 68.44L186.93 68.51L186.88 68.59L186.84 68.66L186.79 68.73L186.74 68.81L186.7 68.88L186.65 68.95L186.61 69.03L186.56 69.1L186.51 69.17L186.47 69.24L186.42 69.32L186.37 69.39L186.33 69.46L186.28 69.54L186.23 69.61L186.19 69.68L186.14 69.75L186.09 69.83L186.05 69.9L186 69.97L185.95 70.05L185.91 70.12L185.86 70.19L185.81 70.26L185.76 70.34L185.72 70.41L185.67 70.48L185.62 70.56L185.57 70.64L185.52 70.72L185.47 70.79L185.42 70.87L185.37 70.95L185.32 71.03L185.27 71.1L185.22 71.18L185.17 71.26L185.11 71.34L185.06 71.41L185.01 71.49L184.96 71.57L184.91 71.65L184.86 71.72L184.81 71.8L184.76 71.88L184.71 71.96L184.66 72.03L184.61 72.11L184.56 72.19L184.5 72.27L184.45 72.34L184.4 72.42L184.35 72.5L184.3 72.57L184.25 72.65L184.2 72.73L184.15 72.81L184.1 72.88L184.05 72.96L183.99 73.04L183.94 73.11L183.89 73.19L183.84 73.27L183.79 73.34L183.74 73.42L183.69 73.5L183.64 73.57L183.58 73.66L183.52 73.74L183.47 73.82L183.41 73.91L183.35 73.99L183.3 74.08L183.24 74.16L183.18 74.24L183.13 74.33L183.07 74.41L183.01 74.49L182.96 74.58L182.9 74.66L182.84 74.74L182.79 74.83L182.73 74.91L182.67 74.99L182.62 75.08L182.56 75.16L182.5 75.24L182.45 75.33L182.39 75.41L182.33 75.49L182.27 75.57L182.22 75.66L182.16 75.74L182.1 75.82L182.05 75.91L181.99 75.99L181.93 76.07L181.87 76.15L181.82 76.24L181.76 76.32L181.7 76.4L181.64 76.48L181.59 76.57L181.53 76.65L181.47 76.73L181.41 76.81L181.36 76.9L181.32 76.95L181.28 77.01L181.24 77.07L181.2 77.12L181.15 77.18L181.11 77.24L181.07 77.29L181.03 77.35L180.99 77.4L180.95 77.46L180.91 77.52L180.87 77.57L180.83 77.63L180.79 77.69L180.75 77.74L180.71 77.8L180.67 77.86L180.63 77.91L180.59 77.97L180.55 78.02L180.51 78.08L180.47 78.14L180.42 78.19L180.38 78.25L180.34 78.31L180.3 78.36L180.22 78.47L180.18 78.53L180.14 78.59L180.1 78.64L180.06 78.7L180.02 78.76L179.98 78.81L179.85 78.98L179.73 79.15L179.66 79.25L179.59 79.34L179.52 79.44L179.38 79.63L179.31 79.73L179.24 79.82L179.17 79.92L179.1 80.02L179.03 80.11L178.96 80.21L178.89 80.31L178.82 80.4L178.75 80.5L178.68 80.6L178.61 80.69L178.54 80.79L178.47 80.89L178.4 80.98L178.33 81.08L178.25 81.17L178.18 81.27L178.11 81.37L178.04 81.46L177.97 81.56L177.9 81.65L177.83 81.75L177.76 81.85L177.69 81.94L177.62 82.04L177.54 82.13L177.47 82.23L177.4 82.32L177.33 82.42L177.26 82.51L177.18 82.61L177.11 82.7L177.04 82.8L176.97 82.89L176.9 82.99L176.68 83.26L176.38 83.65L176.08 84.04L175.78 84.43L175.48 84.81L175.17 85.2L174.87 85.59L174.56 85.97L174.25 86.35L173.95 86.74L173.64 87.12L173.33 87.5L173.01 87.88L172.7 88.26L172.39 88.64L172.08 89.02L171.76 89.4L171.44 89.77L171.13 90.15L170.81 90.52L170.49 90.89L170.17 91.27L169.85 91.64L169.53 92.01L169.21 92.38L168.88 92.75L168.56 93.11L168.23 93.48L167.91 93.85L167.58 94.21L167.25 94.58L166.92 94.94L166.59 95.3L166.26 95.66L165.93 96.02L165.6 96.38L165.27 96.74L164.93 97.1L164.6 97.46L164.26 97.81L163.92 98.17L163.92 98.17L163.92 98.18L163.92 98.18L163.91 98.19L163.91 98.19L163.9 98.2L476.12 98.2L475.78 97.84L475.44 97.49L475.1 97.13L474.76 96.77L474.43 96.4L474.09 96.04L473.76 95.68L473.42 95.32L473.09 94.95L472.76 94.58L472.43 94.22L472.1 93.85L471.77 93.48L471.44 93.11L471.11 92.74L470.79 92.37L470.46 92L470.14 91.63L469.82 91.25L469.49 90.88L469.17 90.5L468.85 90.12L468.53 89.75L468.22 89.37L467.9 88.99L467.58 88.61L467.27 88.22L466.95 87.84L466.64 87.46L466.33 87.07L466.02 86.69L465.71 86.3L465.4 85.92L465.09 85.53L464.78 85.14L464.47 84.75L464.17 84.36L463.86 83.97L463.56 83.57L463.26 83.18L463.24 83.16L463.22 83.14L463.18 83.09L463.14 83.04L463.12 83L463.04 82.91L462.97 82.81L462.9 82.71L462.82 82.62L462.75 82.52L462.68 82.42L462.6 82.33L462.53 82.23L462.46 82.13L462.38 82.04L462.31 81.94L462.24 81.84L462.17 81.74L462.09 81.65L462.02 81.55L461.95 81.45L461.88 81.35L461.8 81.26L461.73 81.16L461.66 81.06L461.59 80.96L461.52 80.87L461.44 80.77L461.37 80.67L461.3 80.57L461.23 80.47L461.16 80.38L461.09 80.28L461.01 80.18L460.94 80.08L460.87 79.98L460.8 79.88L460.73 79.79L460.66 79.69L460.59 79.59L460.51 79.49L460.44 79.39L460.37 79.29L460.3 79.2L460.23 79.1L460.19 79.04L460.15 78.99L460.11 78.93L460.07 78.88L460.03 78.83L459.95 78.72L459.84 78.56L459.76 78.45L459.72 78.39L459.68 78.34L459.64 78.28L459.6 78.23L459.56 78.18L459.52 78.12L459.48 78.07L459.44 78.01L459.4 77.96L459.36 77.9L459.32 77.85L459.28 77.79L459.25 77.74L459.21 77.69L459.17 77.63L459.13 77.58L459.09 77.52L459.05 77.47L459.01 77.41L458.97 77.36L458.93 77.3L458.89 77.25L458.86 77.19L458.82 77.14L458.78 77.09L458.74 77.03L458.7 76.98L458.66 76.92L458.6 76.84L458.54 76.75L458.48 76.67L458.43 76.59L458.37 76.5L458.31 76.42L458.25 76.33L458.19 76.25L458.13 76.16L458.07 76.08L458.01 75.99L457.95 75.91L457.9 75.82L457.84 75.74L457.78 75.65L457.72 75.57L457.66 75.48L457.6 75.4L457.55 75.31L457.49 75.23L457.43 75.14L457.37 75.06L457.31 74.97L457.26 74.89L457.2 74.8L457.14 74.72L457.08 74.63L457.02 74.55L456.97 74.46L456.91 74.38L456.85 74.29L456.79 74.21L456.74 74.12L456.68 74.04L456.62 73.95L456.56 73.86L456.51 73.78L456.45 73.69L456.33 73.52L456.28 73.45L456.23 73.38L456.18 73.3L456.13 73.23L456.08 73.15L456.03 73.08L455.98 73L455.93 72.93L455.88 72.86L455.83 72.78L455.79 72.71L455.74 72.63L455.69 72.56L455.64 72.48L455.59 72.41L455.54 72.33L455.49 72.26L455.44 72.19L455.39 72.11L455.34 72.04L455.29 71.96L455.24 71.89L455.19 71.81L455.14 71.74L455.09 71.66L455.04 71.59L455 71.51L454.95 71.44L454.9 71.36L454.85 71.29L454.8 71.21L454.75 71.14L454.7 71.06L454.65 70.99L454.6 70.91L454.56 70.84L454.51 70.76L454.46 70.69L454.41 70.61L454.36 70.53L454.31 70.46L454.26 70.38L454.22 70.31L454.17 70.23L454.12 70.16L454.07 70.08L454.02 70.01L453.97 69.93L453.93 69.86L453.88 69.78L453.83 69.71L453.78 69.63L453.73 69.56L453.69 69.48L453.64 69.41L453.59 69.33L453.54 69.26L453.49 69.18L453.45 69.11L453.4 69.03L453.35 68.96L453.3 68.88L453.25 68.81L453.21 68.73L453.16 68.65L453.11 68.58L453.06 68.5L453.02 68.43L452.97 68.35L452.92 68.28L452.87 68.2L452.83 68.13L452.78 68.05L452.73 67.97L452.68 67.9L452.64 67.82L452.59 67.75L452.54 67.67L452.5 67.6L452.45 67.52L452.39 67.42L452.33 67.33L452.27 67.23L452.21 67.14L452.15 67.04L452.1 66.95L452.04 66.85L451.98 66.75L451.92 66.66L451.86 66.56L451.8 66.47L451.74 66.37L451.69 66.27L451.63 66.18L451.57 66.08L451.51 65.98L451.45 65.89L451.4 65.79L451.34 65.69L451.28 65.6L451.22 65.5L451.16 65.4L451.11 65.31L451.05 65.21L450.99 65.11L450.93 65.02L450.88 64.92L450.82 64.82L450.76 64.72L450.7 64.63L450.65 64.53L450.59 64.43L450.53 64.34L450.47 64.24L450.42 64.14L450.36 64.04L450.3 63.95L450.25 63.85L450.19 63.75L450.13 63.65L450.1 63.59L450.06 63.53L450.02 63.47L449.99 63.41L449.95 63.35L449.92 63.29L449.88 63.23L449.85 63.17L449.81 63.11L449.77 63.05L449.74 62.98L449.67 62.86L449.63 62.8L449.56 62.68L449.49 62.56L449.45 62.5L449.42 62.44L449.38 62.38L449.34 62.32L449.31 62.26L449.27 62.19L449.24 62.13L449.2 62.07L449.16 62.01L449.13 61.95L449.09 61.89L449.06 61.83L449.02 61.77L448.99 61.71L448.95 61.65L448.92 61.58L448.88 61.52L448.84 61.46L448.81 61.4L448.77 61.34L448.74 61.28L448.7 61.22L448.61 61.05L448.52 60.89L448.43 60.73L448.34 60.57L448.24 60.41L448.15 60.24L448.06 60.08L447.97 59.92L447.88 59.76L447.79 59.59L447.7 59.43L447.61 59.27L447.52 59.1L447.43 58.94L447.34 58.78L447.25 58.62L447.16 58.45L447.07 58.29L446.98 58.12L446.89 57.96L446.8 57.8L446.71 57.63L446.62 57.47L446.53 57.3L446.44 57.14L446.35 56.98L446.27 56.81L446.18 56.65L446.09 56.48L446 56.32L445.91 56.15L445.83 55.99L445.74 55.82L445.65 55.66L445.56 55.49L445.48 55.33L445.39 55.16L445.31 54.99L445.22 54.83L445.13 54.66L444.74 53.92L444.32 53.2L443.9 52.48L443.45 51.79L442.99 51.1L442.52 50.44L442.03 49.79L441.52 49.15L441.01 48.53L440.47 47.93L439.93 47.34L439.37 46.77L438.8 46.22L438.22 45.68L437.62 45.17L437.02 44.66L436.4 44.18L435.77 43.72L435.13 43.27L434.48 42.84L433.82 42.43L433.16 42.04L432.48 41.67L431.79 41.31L431.1 40.98L430.39 40.67L429.68 40.38L428.97 40.1L428.24 39.85L427.51 39.62L426.77 39.41L426.03 39.22L425.28 39.05L424.53 38.91L423.77 38.78L423 38.68L422.24 38.6L421.46 38.54L420.69 38.51L419.91 38.5L220.09 38.5L219.31 38.51Z" id="e27kpFrEyJ"></path><path d="M278.66 65.11C276.88 65.11 275.44 66.56 275.44 68.35C275.44 70.14 276.88 71.59 278.66 71.59C286.93 71.59 353.05 71.59 361.31 71.59C363.09 71.59 364.53 70.14 364.53 68.35C364.53 66.56 363.09 65.11 361.31 65.11C344.78 65.11 286.93 65.11 278.66 65.11Z" id="c22spMUQlz"></path><path d="M193.9 417.13L195.31 417.27L196.71 417.47L198.08 417.73L199.44 418.04L200.77 418.4L202.09 418.81L203.38 419.27L204.65 419.78L205.89 420.34L207.11 420.95L208.3 421.6L209.46 422.29L210.6 423.03L211.7 423.81L212.77 424.63L213.81 425.49L214.81 426.39L215.78 427.33L216.71 428.3L217.61 429.31L218.46 430.36L219.28 431.43L220.06 432.54L220.79 433.68L221.48 434.85L222.13 436.04L222.73 437.27L223.29 438.52L223.79 439.79L224.25 441.09L224.66 442.41L225.02 443.75L225.33 445.12L225.58 446.5L225.78 447.9L225.93 449.32L226.01 450.75L226.04 452.2L226.01 453.65L225.93 455.08L225.78 456.5L225.58 457.9L225.33 459.28L225.02 460.65L224.66 461.99L224.25 463.31L223.79 464.61L223.29 465.88L222.73 467.13L222.13 468.36L221.48 469.55L220.79 470.72L220.05 471.86L219.28 472.97L218.46 474.04L217.6 475.09L216.71 476.1L215.78 477.07L214.81 478.01L213.8 478.91L212.77 479.77L211.7 480.59L210.59 481.37L209.46 482.11L208.3 482.8L207.11 483.45L205.89 484.06L204.65 484.62L203.38 485.13L202.09 485.59L200.77 486L199.44 486.36L198.08 486.67L196.7 486.92L195.31 487.12L193.9 487.27L192.47 487.36L191.03 487.39L189.59 487.36L188.17 487.27L186.76 487.12L185.36 486.92L183.99 486.67L182.63 486.36L181.3 486L179.98 485.59L178.69 485.13L177.42 484.62L176.18 484.06L174.96 483.45L173.77 482.8L172.61 482.11L171.47 481.37L170.37 480.59L169.3 479.77L168.26 478.91L167.26 478.01L166.29 477.07L165.36 476.1L164.46 475.09L163.61 474.04L162.79 472.97L162.01 471.86L161.28 470.72L160.59 469.55L159.94 468.36L159.34 467.13L158.78 465.88L158.27 464.61L157.81 463.31L157.4 461.99L157.04 460.65L156.74 459.28L156.48 457.9L156.29 456.5L156.14 455.08L156.05 453.65L156.03 452.2L156.05 450.75L156.14 449.32L156.29 447.9L156.48 446.5L156.74 445.12L157.04 443.75L157.4 442.41L157.81 441.09L158.27 439.79L158.78 438.51L159.34 437.26L159.94 436.04L160.59 434.84L161.28 433.68L162.01 432.54L162.79 431.43L163.61 430.35L164.46 429.31L165.36 428.3L166.29 427.33L167.26 426.39L168.26 425.49L169.3 424.63L170.37 423.81L171.47 423.03L172.61 422.29L173.77 421.59L174.96 420.94L176.18 420.34L177.42 419.78L178.69 419.27L179.98 418.81L181.3 418.4L182.63 418.04L183.99 417.73L185.36 417.47L186.76 417.27L188.17 417.13L189.59 417.04L191.03 417.01L192.47 417.04L193.9 417.13ZM188.36 423.61L187.05 423.76L185.76 423.97L184.49 424.24L183.24 424.57L182.01 424.95L180.81 425.38L179.63 425.87L178.48 426.41L177.36 426.99L176.27 427.62L175.2 428.3L174.17 429.03L173.18 429.8L172.22 430.61L171.29 431.46L170.4 432.35L169.56 433.28L168.75 434.25L167.98 435.25L167.26 436.29L166.59 437.35L165.96 438.45L165.37 439.58L164.84 440.74L164.36 441.92L163.92 443.13L163.54 444.37L163.22 445.62L162.95 446.9L162.74 448.2L162.59 449.51L162.5 450.85L162.46 452.2L162.5 453.55L162.59 454.88L162.74 456.2L162.95 457.5L163.22 458.77L163.54 460.03L163.92 461.27L164.36 462.47L164.84 463.66L165.37 464.82L165.96 465.94L166.59 467.04L167.26 468.11L167.98 469.15L168.75 470.15L169.56 471.11L170.4 472.04L171.29 472.94L172.22 473.79L173.18 474.6L174.17 475.37L175.2 476.09L176.27 476.77L177.36 477.41L178.48 477.99L179.63 478.53L180.81 479.01L182.01 479.45L183.24 479.83L184.49 480.16L185.76 480.43L187.05 480.64L188.36 480.79L189.69 480.88L191.03 480.92L192.38 480.88L193.7 480.79L195.01 480.64L196.31 480.43L197.58 480.16L198.83 479.83L200.06 479.45L201.26 479.01L202.44 478.53L203.59 477.99L204.71 477.41L205.8 476.77L206.87 476.09L207.9 475.37L208.89 474.6L209.85 473.79L210.78 472.94L211.67 472.04L212.51 471.11L213.32 470.15L214.08 469.15L214.81 468.11L215.48 467.04L216.11 465.94L216.7 464.82L217.23 463.66L217.71 462.47L218.14 461.27L218.52 460.03L218.85 458.77L219.12 457.5L219.33 456.2L219.48 454.88L219.57 453.55L219.6 452.2L219.57 450.85L219.48 449.51L219.33 448.2L219.12 446.9L218.85 445.62L218.52 444.37L218.14 443.13L217.71 441.92L217.23 440.74L216.69 439.58L216.11 438.45L215.48 437.35L214.8 436.29L214.08 435.25L213.32 434.25L212.51 433.28L211.66 432.35L210.78 431.46L209.85 430.61L208.89 429.8L207.89 429.03L206.86 428.3L205.8 427.62L204.71 426.99L203.59 426.41L202.43 425.87L201.26 425.38L200.05 424.95L198.83 424.57L197.58 424.24L196.3 423.97L195.01 423.76L193.7 423.61L192.38 423.51L191.03 423.48L189.69 423.51L188.36 423.61Z" id="g1deykzmyG"></path><path d="M451.83 417.13L453.24 417.27L454.64 417.47L456.01 417.73L457.37 418.04L458.7 418.4L460.02 418.81L461.31 419.27L462.58 419.78L463.82 420.34L465.04 420.95L466.23 421.6L467.39 422.29L468.52 423.03L469.63 423.81L470.7 424.63L471.73 425.49L472.74 426.39L473.71 427.33L474.64 428.3L475.53 429.31L476.39 430.36L477.21 431.43L477.98 432.54L478.72 433.68L479.41 434.85L480.06 436.04L480.66 437.27L481.22 438.52L481.72 439.79L482.18 441.09L482.59 442.41L482.95 443.75L483.26 445.12L483.51 446.5L483.71 447.9L483.86 449.32L483.94 450.75L483.97 452.2L483.95 453.65L483.86 455.08L483.71 456.5L483.52 457.9L483.26 459.28L482.96 460.65L482.6 461.99L482.19 463.31L481.73 464.61L481.22 465.88L480.66 467.13L480.06 468.36L479.41 469.55L478.72 470.72L477.99 471.86L477.21 472.97L476.39 474.04L475.54 475.09L474.64 476.1L473.71 477.07L472.74 478.01L471.74 478.91L470.7 479.77L469.63 480.59L468.53 481.37L467.39 482.11L466.23 482.8L465.04 483.45L463.82 484.06L462.58 484.62L461.31 485.13L460.02 485.59L458.7 486L457.37 486.36L456.01 486.67L454.64 486.92L453.24 487.12L451.83 487.27L450.41 487.36L448.97 487.39L447.53 487.36L446.1 487.27L444.69 487.12L443.3 486.92L441.92 486.67L440.56 486.36L439.23 486L437.91 485.59L436.62 485.13L435.35 484.62L434.11 484.06L432.89 483.45L431.7 482.8L430.54 482.11L429.41 481.37L428.3 480.59L427.23 479.77L426.2 478.91L425.19 478.01L424.22 477.07L423.29 476.1L422.4 475.09L421.54 474.04L420.72 472.97L419.95 471.86L419.21 470.72L418.52 469.55L417.87 468.36L417.27 467.13L416.71 465.88L416.21 464.61L415.75 463.31L415.34 461.99L414.98 460.65L414.67 459.28L414.42 457.9L414.22 456.5L414.07 455.08L413.99 453.65L413.96 452.2L413.99 450.75L414.07 449.32L414.22 447.9L414.42 446.5L414.67 445.12L414.98 443.75L415.34 442.41L415.75 441.09L416.21 439.79L416.71 438.51L417.27 437.26L417.87 436.04L418.52 434.84L419.21 433.68L419.95 432.54L420.72 431.43L421.54 430.35L422.4 429.31L423.29 428.3L424.22 427.33L425.19 426.39L426.2 425.49L427.23 424.63L428.3 423.81L429.41 423.03L430.54 422.29L431.7 421.59L432.89 420.94L434.11 420.34L435.35 419.78L436.62 419.27L437.91 418.81L439.23 418.4L440.56 418.04L441.92 417.73L443.3 417.47L444.69 417.27L446.1 417.13L447.53 417.04L448.97 417.01L450.41 417.04L451.83 417.13ZM446.3 423.61L444.99 423.76L443.7 423.97L442.42 424.24L441.17 424.57L439.95 424.95L438.74 425.38L437.57 425.87L436.41 426.41L435.29 426.99L434.2 427.62L433.14 428.3L432.11 429.03L431.11 429.8L430.15 430.61L429.22 431.46L428.34 432.35L427.49 433.28L426.68 434.25L425.92 435.25L425.2 436.29L424.52 437.35L423.89 438.45L423.31 439.58L422.77 440.74L422.29 441.92L421.86 443.13L421.48 444.37L421.15 445.62L420.88 446.9L420.67 448.2L420.52 449.51L420.43 450.85L420.4 452.2L420.43 453.55L420.52 454.88L420.67 456.2L420.88 457.5L421.15 458.77L421.48 460.03L421.86 461.27L422.29 462.47L422.77 463.66L423.31 464.82L423.89 465.94L424.52 467.04L425.2 468.11L425.92 469.15L426.68 470.15L427.49 471.11L428.34 472.04L429.22 472.94L430.15 473.79L431.11 474.6L432.11 475.37L433.14 476.09L434.2 476.77L435.29 477.41L436.41 477.99L437.57 478.53L438.74 479.01L439.95 479.45L441.17 479.83L442.42 480.16L443.7 480.43L444.99 480.64L446.3 480.79L447.62 480.88L448.97 480.92L450.31 480.88L451.64 480.79L452.95 480.64L454.24 480.43L455.51 480.16L456.76 479.83L457.99 479.45L459.19 479.01L460.37 478.53L461.52 477.99L462.64 477.41L463.73 476.77L464.8 476.09L465.83 475.37L466.82 474.6L467.78 473.79L468.71 472.94L469.59 472.04L470.44 471.11L471.25 470.15L472.01 469.15L472.73 468.11L473.41 467.04L474.04 465.94L474.62 464.82L475.16 463.66L475.64 462.47L476.07 461.27L476.45 460.03L476.78 458.77L477.05 457.5L477.26 456.2L477.41 454.88L477.5 453.55L477.54 452.2L477.5 450.85L477.41 449.51L477.26 448.2L477.05 446.9L476.78 445.62L476.46 444.37L476.08 443.13L475.64 441.92L475.16 440.74L474.63 439.58L474.04 438.45L473.41 437.35L472.74 436.29L472.02 435.25L471.25 434.25L470.44 433.28L469.6 432.35L468.71 431.46L467.78 430.61L466.82 429.8L465.83 429.03L464.8 428.3L463.73 427.62L462.64 426.99L461.52 426.41L460.37 425.87L459.19 425.38L457.99 424.95L456.76 424.57L455.51 424.24L454.24 423.97L452.95 423.76L451.64 423.61L450.31 423.51L448.97 423.48L447.62 423.51L446.3 423.61Z" id="aZn8uo0kU"></path><path d="M381.87 168.79L382.62 168.87L383.36 168.97L384.08 169.11L384.8 169.27L385.51 169.46L386.2 169.68L386.89 169.92L387.56 170.19L388.21 170.49L388.86 170.81L389.49 171.15L390.1 171.52L390.7 171.91L391.28 172.32L391.85 172.76L392.4 173.21L392.93 173.69L393.44 174.18L393.93 174.7L394.41 175.23L394.86 175.78L395.29 176.35L395.7 176.94L396.09 177.54L396.46 178.16L396.8 178.79L397.12 179.44L397.41 180.1L397.68 180.77L397.92 181.46L398.14 182.16L398.33 182.87L398.49 183.59L398.62 184.32L398.73 185.06L398.81 185.81L398.85 186.57L398.87 187.33L398.87 195.42L453.49 195.42L454.75 195.45L455.99 195.53L457.22 195.65L458.43 195.83L459.63 196.05L460.81 196.32L461.97 196.63L463.12 196.99L464.24 197.39L465.35 197.84L466.43 198.32L467.49 198.85L468.53 199.42L469.54 200.02L470.52 200.66L471.48 201.34L472.42 202.06L473.32 202.81L474.19 203.59L475.04 204.41L475.85 205.26L476.63 206.14L477.37 207.04L478.09 207.98L478.76 208.94L479.4 209.94L480 210.95L480.57 211.99L481.09 213.06L481.58 214.15L482.02 215.26L482.42 216.39L482.77 217.54L483.09 218.71L483.35 219.9L483.57 221.1L483.75 222.32L483.87 223.55L483.95 224.8L483.97 226.06L483.97 344.37L483.95 345.63L483.87 346.88L483.75 348.12L483.57 349.33L483.35 350.54L483.09 351.73L482.77 352.89L482.42 354.05L482.02 355.18L481.57 356.29L481.09 357.37L480.57 358.44L480 359.48L479.4 360.5L478.76 361.49L478.08 362.45L477.37 363.39L476.63 364.3L475.85 365.18L475.04 366.03L474.19 366.84L473.32 367.63L472.41 368.37L471.48 369.09L470.52 369.77L469.54 370.41L468.52 371.02L467.49 371.58L466.43 372.11L465.34 372.6L464.24 373.04L463.12 373.44L461.97 373.8L460.81 374.12L459.63 374.38L458.43 374.61L457.22 374.78L455.99 374.91L454.75 374.98L453.49 375.01L186.51 375.01L185.25 374.98L184.01 374.91L182.78 374.78L181.57 374.61L180.37 374.38L179.19 374.12L178.03 373.8L176.89 373.44L175.76 373.04L174.66 372.6L173.57 372.11L172.51 371.58L171.48 371.02L170.47 370.41L169.48 369.77L168.52 369.09L167.59 368.37L166.68 367.62L165.81 366.84L164.97 366.02L164.16 365.17L163.38 364.3L162.63 363.39L161.92 362.45L161.24 361.49L160.6 360.49L160 359.48L159.44 358.43L158.91 357.37L158.43 356.28L157.99 355.17L157.58 354.04L157.23 352.89L156.92 351.72L156.65 350.53L156.43 349.33L156.25 348.11L156.13 346.87L156.05 345.63L156.03 344.36L156.03 226.06L156.05 224.8L156.13 223.55L156.25 222.32L156.43 221.1L156.65 219.89L156.91 218.71L157.23 217.54L157.58 216.39L157.98 215.26L158.43 214.15L158.91 213.06L159.43 211.99L160 210.95L160.6 209.93L161.24 208.94L161.92 207.98L162.63 207.04L163.37 206.13L164.15 205.25L164.96 204.41L165.81 203.59L166.68 202.81L167.59 202.06L168.52 201.34L169.48 200.66L170.46 200.02L171.48 199.41L172.51 198.85L173.57 198.32L174.66 197.84L175.76 197.39L176.88 196.99L178.03 196.63L179.19 196.32L180.37 196.05L181.57 195.83L182.78 195.65L184.01 195.53L185.25 195.45L186.51 195.42L241.13 195.42L241.13 187.33L241.15 186.57L241.19 185.81L241.27 185.06L241.38 184.32L241.51 183.59L241.67 182.87L241.86 182.16L242.08 181.46L242.32 180.77L242.59 180.1L242.88 179.44L243.2 178.79L243.54 178.16L243.91 177.54L244.3 176.94L244.71 176.35L245.14 175.78L245.59 175.23L246.07 174.7L246.56 174.18L247.07 173.69L247.6 173.21L248.15 172.76L248.72 172.32L249.3 171.91L249.9 171.52L250.51 171.15L251.14 170.81L251.79 170.49L252.44 170.19L253.11 169.92L253.8 169.68L254.49 169.46L255.2 169.27L255.92 169.11L256.64 168.97L257.38 168.87L258.13 168.79L258.88 168.75L259.64 168.73L380.36 168.73L381.12 168.75L381.87 168.79ZM185.85 201.91L185.2 201.95L184.54 202.03L183.89 202.14L183.24 202.27L182.59 202.44L181.95 202.63L181.31 202.86L180.67 203.12L180.04 203.4L179.41 203.72L178.78 204.07L178.16 204.45L177.54 204.85L176.92 205.29L176.3 205.76L175.69 206.26L175.08 206.79L174.47 207.35L173.87 207.94L173.27 208.56L172.68 209.2L172.08 209.88L171.49 210.59L170.9 211.33L170.32 212.1L169.74 212.91L169.16 213.74L168.59 214.6L168.01 215.49L167.44 216.41L166.88 217.36L166.32 218.34L165.76 219.35L165.2 220.4L164.65 221.47L164.1 222.57L163.55 223.7L163.01 224.87L162.46 226.06L162.46 344.36L162.48 345.36L162.54 346.34L162.64 347.32L162.78 348.28L162.95 349.23L163.16 350.17L163.41 351.09L163.69 351.99L164.01 352.89L164.36 353.76L164.74 354.62L165.15 355.46L165.6 356.28L166.07 357.08L166.58 357.87L167.11 358.63L167.67 359.37L168.26 360.08L168.88 360.78L169.52 361.44L170.18 362.09L170.87 362.71L171.58 363.3L172.32 363.86L173.08 364.4L173.85 364.91L174.65 365.38L175.47 365.83L176.31 366.25L177.16 366.63L178.03 366.98L178.92 367.3L179.82 367.58L180.74 367.83L181.67 368.04L182.61 368.21L183.57 368.35L184.54 368.45L185.52 368.51L186.51 368.53L453.5 368.53L454.49 368.51L455.47 368.45L456.44 368.35L457.39 368.21L458.34 368.04L459.27 367.83L460.19 367.58L461.09 367.3L461.98 366.98L462.85 366.63L463.7 366.25L464.54 365.83L465.36 365.38L466.16 364.91L466.93 364.4L467.69 363.86L468.43 363.3L469.14 362.71L469.83 362.09L470.49 361.44L471.13 360.78L471.75 360.08L472.34 359.37L472.9 358.63L473.43 357.87L473.94 357.08L474.41 356.28L474.86 355.46L475.27 354.62L475.65 353.76L476 352.89L476.31 351.99L476.6 351.09L476.84 350.17L477.05 349.23L477.23 348.28L477.36 347.32L477.46 346.34L477.52 345.36L477.54 344.36L477.54 226.06L477.52 225.07L477.46 224.08L477.36 223.11L477.23 222.15L477.05 221.2L476.84 220.26L476.6 219.34L476.31 218.43L476 217.54L475.65 216.66L475.27 215.81L474.85 214.96L474.41 214.14L473.93 213.34L473.43 212.56L472.9 211.8L472.33 211.06L471.75 210.34L471.13 209.65L470.49 208.98L469.82 208.34L469.14 207.72L468.42 207.13L467.69 206.56L466.93 206.03L466.15 205.52L465.35 205.04L464.54 204.6L463.7 204.18L462.85 203.8L461.98 203.45L461.09 203.13L460.19 202.85L459.27 202.6L458.34 202.39L457.39 202.21L456.43 202.07L455.47 201.97L454.49 201.91L453.5 201.89L398.87 201.89L398.87 206.75L398.86 207.51L398.81 208.27L398.74 209.02L398.63 209.76L398.5 210.49L398.33 211.21L398.15 211.92L397.93 212.62L397.69 213.31L397.42 213.98L397.12 214.64L396.81 215.29L396.46 215.92L396.1 216.54L395.71 217.14L395.3 217.73L394.87 218.3L394.41 218.85L393.94 219.38L393.45 219.9L392.94 220.39L392.4 220.87L391.86 221.32L391.29 221.76L390.71 222.17L390.11 222.56L389.49 222.93L388.86 223.27L388.22 223.59L387.56 223.89L386.89 224.16L386.21 224.4L385.51 224.62L384.81 224.81L384.09 224.97L383.36 225.11L382.63 225.21L381.88 225.29L381.13 225.33L380.36 225.35L259.65 225.35L258.89 225.33L258.13 225.29L257.39 225.21L256.65 225.11L255.92 224.97L255.2 224.81L254.5 224.62L253.8 224.4L253.12 224.16L252.45 223.89L251.79 223.59L251.15 223.27L250.52 222.93L249.9 222.56L249.31 222.17L248.72 221.76L248.16 221.32L247.61 220.87L247.08 220.39L246.57 219.9L246.07 219.38L245.6 218.85L245.15 218.3L244.71 217.73L244.3 217.14L243.92 216.54L243.55 215.92L243.21 215.29L242.89 214.64L242.6 213.98L242.33 213.31L242.08 212.62L241.87 211.92L241.68 211.21L241.52 210.49L241.38 209.76L241.28 209.02L241.2 208.27L241.15 207.51L241.14 206.75L241.14 201.89L186.52 201.89L185.85 201.91ZM259.14 175.21L258.65 175.24L258.17 175.29L257.69 175.36L257.21 175.45L256.74 175.55L256.28 175.68L255.83 175.82L255.38 175.98L254.95 176.16L254.52 176.35L254.1 176.56L253.69 176.78L253.29 177.02L252.9 177.28L252.52 177.55L252.15 177.83L251.79 178.13L251.44 178.44L251.11 178.76L250.79 179.1L250.48 179.44L250.18 179.8L249.9 180.17L249.64 180.56L249.38 180.95L249.14 181.35L248.92 181.76L248.71 182.19L248.52 182.62L248.35 183.06L248.19 183.5L248.05 183.96L247.92 184.42L247.82 184.89L247.73 185.37L247.66 185.85L247.61 186.34L247.58 186.84L247.57 187.33L247.57 206.75L247.58 207.25L247.61 207.75L247.66 208.24L247.73 208.72L247.82 209.2L247.92 209.67L248.05 210.13L248.19 210.58L248.35 211.03L248.52 211.47L248.71 211.9L248.92 212.33L249.14 212.74L249.38 213.14L249.64 213.53L249.9 213.92L250.18 214.29L250.48 214.65L250.79 214.99L251.11 215.33L251.44 215.65L251.79 215.96L252.15 216.26L252.52 216.54L252.9 216.81L253.29 217.07L253.69 217.31L254.1 217.53L254.52 217.74L254.95 217.93L255.38 218.11L255.83 218.27L256.28 218.41L256.74 218.53L257.21 218.64L257.69 218.73L258.17 218.8L258.65 218.85L259.14 218.88L259.64 218.89L380.36 218.89L380.86 218.88L381.35 218.85L381.83 218.8L382.31 218.73L382.79 218.64L383.26 218.53L383.72 218.41L384.17 218.27L384.62 218.11L385.05 217.93L385.48 217.74L385.9 217.53L386.31 217.3L386.71 217.07L387.1 216.81L387.48 216.54L387.85 216.26L388.21 215.96L388.56 215.65L388.89 215.33L389.21 214.99L389.52 214.64L389.82 214.28L390.1 213.91L390.36 213.53L390.62 213.14L390.86 212.74L391.08 212.32L391.29 211.9L391.48 211.47L391.65 211.03L391.81 210.58L391.95 210.13L392.08 209.66L392.18 209.19L392.27 208.72L392.34 208.23L392.39 207.75L392.42 207.25L392.43 206.75L392.43 187.33L392.42 186.83L392.39 186.34L392.34 185.85L392.27 185.37L392.18 184.89L392.08 184.42L391.95 183.96L391.81 183.5L391.65 183.05L391.48 182.61L391.29 182.18L391.08 181.76L390.86 181.35L390.62 180.95L390.36 180.55L390.1 180.17L389.82 179.8L389.52 179.44L389.21 179.09L388.89 178.76L388.56 178.43L388.21 178.12L387.85 177.83L387.48 177.54L387.1 177.27L386.71 177.02L386.31 176.78L385.9 176.56L385.48 176.35L385.05 176.15L384.62 175.98L384.17 175.82L383.72 175.68L383.26 175.55L382.79 175.45L382.31 175.36L381.83 175.29L381.35 175.24L380.86 175.21L380.36 175.2L259.64 175.2L259.14 175.21Z" id="d1LptffI3c"></path><path d="M252 431.9C252 435.96 252 468.44 252 472.5C252 474.28 253.44 475.74 255.22 475.74C257 475.74 258.44 474.29 258.44 472.5C258.44 468.44 258.44 435.96 258.44 431.9C258.44 430.11 256.99 428.67 255.22 428.67C253.44 428.67 252 430.11 252 431.9Z" id="bBdQQpWRI"></path><path d="M284.39 431.9C284.39 435.96 284.39 468.44 284.39 472.5C284.39 474.28 285.83 475.74 287.61 475.74C289.39 475.74 290.83 474.29 290.83 472.5C290.83 468.44 290.83 435.96 290.83 431.9C290.83 430.11 289.39 428.67 287.61 428.67C285.83 428.67 284.39 430.11 284.39 431.9Z" id="b1XpEdmFQ0"></path><path d="M316.78 431.9C316.78 435.96 316.78 468.44 316.78 472.5C316.78 474.28 318.22 475.74 320 475.74C321.78 475.74 323.22 474.29 323.22 472.5C323.22 468.44 323.22 435.96 323.22 431.9C323.22 430.11 321.78 428.67 320 428.67C318.22 428.67 316.78 430.11 316.78 431.9Z" id="c2MEgDuFgy"></path><path d="M349.17 431.9C349.17 435.96 349.17 468.44 349.17 472.5C349.17 474.28 350.61 475.74 352.39 475.74C354.17 475.74 355.61 474.29 355.61 472.5C355.61 468.44 355.61 435.96 355.61 431.9C355.61 430.11 354.17 428.67 352.39 428.67C350.61 428.67 349.17 430.11 349.17 431.9Z" id="b267jiOrv"></path><path d="M381.56 431.9C381.56 435.96 381.56 468.44 381.56 472.5C381.56 474.28 383 475.74 384.78 475.74C386.56 475.74 388 474.29 388 472.5C388 468.44 388 435.96 388 431.9C388 430.11 386.56 428.67 384.78 428.67C383 428.67 381.56 430.11 381.56 431.9Z" id="d1D5uhJFeZ"></path><path d="M199.08 293.98C200.86 293.98 202.3 292.53 202.3 290.74C202.3 288.95 200.86 287.5 199.08 287.5C198.27 287.5 191.84 287.5 191.03 287.5C189.25 287.5 187.81 288.95 187.81 290.74C187.81 292.52 189.26 293.98 191.03 293.98C192.64 293.98 198.27 293.98 199.08 293.98Z" id="b2Kvah8i2z"></path><path d="M392.55 293.98C394.33 293.98 395.77 292.53 395.77 290.74C395.77 288.95 394.33 287.5 392.55 287.5C390.94 287.5 378.04 287.5 376.43 287.5C374.65 287.5 373.21 288.95 373.21 290.74C373.21 292.52 374.65 293.98 376.43 293.98C379.65 293.98 390.94 293.98 392.55 293.98Z" id="aVVB4YCp2"></path><path d="M231.33 293.98C233.11 293.98 234.55 292.53 234.55 290.74C234.55 288.95 233.11 287.5 231.33 287.5C229.72 287.5 216.82 287.5 215.21 287.5C213.43 287.5 211.99 288.95 211.99 290.74C211.99 292.52 213.43 293.98 215.21 293.98C218.43 293.98 229.72 293.98 231.33 293.98Z" id="a58wlUdmoJ"></path><path d="M424.79 293.98C426.57 293.98 428.01 292.53 428.01 290.74C428.01 288.95 426.57 287.5 424.79 287.5C423.18 287.5 410.28 287.5 408.67 287.5C406.89 287.5 405.45 288.95 405.45 290.74C405.45 292.52 406.89 293.98 408.67 293.98C411.9 293.98 423.18 293.98 424.79 293.98Z" id="c3sbtml4fV"></path><path d="M295.81 293.98C297.59 293.98 299.03 292.53 299.03 290.74C299.03 288.95 297.59 287.5 295.81 287.5C294.2 287.5 281.3 287.5 279.69 287.5C277.91 287.5 276.47 288.95 276.47 290.74C276.47 292.52 277.92 293.98 279.69 293.98C282.92 293.98 294.2 293.98 295.81 293.98Z" id="b3AgPxhvoz"></path><path d="M360.31 293.98C362.09 293.98 363.53 292.53 363.53 290.74C363.53 288.95 362.09 287.5 360.31 287.5C358.7 287.5 345.8 287.5 344.19 287.5C342.41 287.5 340.97 288.95 340.97 290.74C340.97 292.52 342.41 293.98 344.19 293.98C347.41 293.98 358.7 293.98 360.31 293.98Z" id="aMULJvImZ"></path><path d="M263.57 293.98C265.35 293.98 266.79 292.53 266.79 290.74C266.79 288.95 265.35 287.5 263.57 287.5C261.96 287.5 249.06 287.5 247.45 287.5C245.67 287.5 244.23 288.95 244.23 290.74C244.23 292.52 245.67 293.98 247.45 293.98C250.67 293.98 261.96 293.98 263.57 293.98Z" id="bk2hTF9f8"></path><path d="M328.06 293.98C329.84 293.98 331.28 292.53 331.28 290.74C331.28 288.95 329.84 287.5 328.06 287.5C326.45 287.5 313.55 287.5 311.94 287.5C310.16 287.5 308.72 288.95 308.72 290.74C308.72 292.52 310.16 293.98 311.94 293.98C315.16 293.98 326.45 293.98 328.06 293.98Z" id="a6fVzCu6Xk"></path><path d="M448.96 293.98C450.74 293.98 452.18 292.53 452.18 290.74C452.18 288.95 450.74 287.5 448.96 287.5C448.16 287.5 441.72 287.5 440.92 287.5C439.14 287.5 437.7 288.95 437.7 290.74C437.7 292.52 439.14 293.98 440.92 293.98C442.52 293.98 448.16 293.98 448.96 293.98Z" id="c23qBaet8J"></path><path d="M378.49 145.28L378.86 145.28L378.86 144.72L378.3 144.72L378.3 145.05L378.21 145.05L378.21 144.63L378.96 144.63L378.96 145.37L378.49 145.37L378.49 145.28ZM378.51 144.94L378.51 144.94L378.62 144.84L378.82 145.04L378.71 145.14L378.62 145.05L378.36 145.3L378.26 145.2L378.51 144.94Z" id="g17Q5YEIuG"></path></defs><g><g><g><use xlink:href="#fwnVbcWr1" opacity="1" fill="#007b5f" fill-opacity="1"></use><g><use xlink:href="#fwnVbcWr1" opacity="1" fill-opacity="0" stroke="#000000" stroke-width="1" stroke-opacity="0"></use></g></g><g><use xlink:href="#c5Grnp4KR" opacity="1" fill="#97d700" fill-opacity="1"></use><g><use xlink:href="#c5Grnp4KR" opacity="1" fill-opacity="0" stroke="#000000" stroke-width="1" stroke-opacity="0"></use></g></g><g><use xlink:href="#aHTlmELyS" opacity="1" fill="#6ac9cc" fill-opacity="1"></use><g><use xlink:href="#aHTlmELyS" opacity="1" fill-opacity="0" stroke="#000000" stroke-width="1" stroke-opacity="0"></use></g></g><g><use xlink:href="#a1dkdcQzL0" opacity="1" fill="#97d700" fill-opacity="1"></use><g><use xlink:href="#a1dkdcQzL0" opacity="1" fill-opacity="0" stroke="#000000" stroke-width="1" stroke-opacity="0"></use></g></g><g><use xlink:href="#f2Vp9PS0C" opacity="1" fill="#97d700" fill-opacity="1"></use><g><use xlink:href="#f2Vp9PS0C" opacity="1" fill-opacity="0" stroke="#000000" stroke-width="1" stroke-opacity="0"></use></g></g><g><use xlink:href="#c2UJZJaQ5M" opacity="1" fill="#ffffff" fill-opacity="1"></use><g><use xlink:href="#c2UJZJaQ5M" opacity="1" fill-opacity="0" stroke="#000000" stroke-width="1" stroke-opacity="0"></use></g></g><g><use xlink:href="#dVJkfS0vV" opacity="1" fill="#ffffff" fill-opacity="1"></use><g><use xlink:href="#dVJkfS0vV" opacity="1" fill-opacity="0" stroke="#000000" stroke-width="1" stroke-opacity="0"></use></g></g><g><use xlink:href="#eG8jeapHB" opacity="1" fill="#50afaf" fill-opacity="1"></use><g><use xlink:href="#eG8jeapHB" opacity="1" fill-opacity="0" stroke="#000000" stroke-width="1" stroke-opacity="0"></use></g></g><g><use xlink:href="#bG3LsZPXb" opacity="1" fill="#a9c47f" fill-opacity="1"></use><g><use xlink:href="#bG3LsZPXb" opacity="1" fill-opacity="0" stroke="#000000" stroke-width="1" stroke-opacity="0"></use></g></g><g><use xlink:href="#a8uqniaiuk" opacity="1" fill="#a9c47f" fill-opacity="1"></use><g><use xlink:href="#a8uqniaiuk" opacity="1" fill-opacity="0" stroke="#000000" stroke-width="1" stroke-opacity="0"></use></g></g><g><use xlink:href="#c5f3EgrqoL" opacity="1" fill="#9fdadf" fill-opacity="1"></use><g><use xlink:href="#c5f3EgrqoL" opacity="1" fill-opacity="0" stroke="#000000" stroke-width="1" stroke-opacity="0"></use></g></g><g><use xlink:href="#a1Cy5pcouS" opacity="1" fill="#9fdadf" fill-opacity="1"></use><g><use xlink:href="#a1Cy5pcouS" opacity="1" fill-opacity="0" stroke="#000000" stroke-width="1" stroke-opacity="0"></use></g></g><g><use xlink:href="#e27kpFrEyJ" opacity="1" fill="#005151" fill-opacity="1"></use><g><use xlink:href="#e27kpFrEyJ" opacity="1" fill-opacity="0" stroke="#000000" stroke-width="1" stroke-opacity="0"></use></g></g><g><use xlink:href="#c22spMUQlz" opacity="1" fill="#005151" fill-opacity="1"></use><g><use xlink:href="#c22spMUQlz" opacity="1" fill-opacity="0" stroke="#000000" stroke-width="1" stroke-opacity="0"></use></g></g><g><use xlink:href="#g1deykzmyG" opacity="1" fill="#005151" fill-opacity="1"></use><g><use xlink:href="#g1deykzmyG" opacity="1" fill-opacity="0" stroke="#000000" stroke-width="1" stroke-opacity="0"></use></g></g><g><use xlink:href="#aZn8uo0kU" opacity="1" fill="#005151" fill-opacity="1"></use><g><use xlink:href="#aZn8uo0kU" opacity="1" fill-opacity="0" stroke="#000000" stroke-width="1" stroke-opacity="0"></use></g></g><g><use xlink:href="#d1LptffI3c" opacity="1" fill="#005151" fill-opacity="1"></use><g><use xlink:href="#d1LptffI3c" opacity="1" fill-opacity="0" stroke="#000000" stroke-width="1" stroke-opacity="0"></use></g></g><g><use xlink:href="#bBdQQpWRI" opacity="1" fill="#005151" fill-opacity="1"></use><g><use xlink:href="#bBdQQpWRI" opacity="1" fill-opacity="0" stroke="#000000" stroke-width="1" stroke-opacity="0"></use></g></g><g><use xlink:href="#b1XpEdmFQ0" opacity="1" fill="#005151" fill-opacity="1"></use><g><use xlink:href="#b1XpEdmFQ0" opacity="1" fill-opacity="0" stroke="#000000" stroke-width="1" stroke-opacity="0"></use></g></g><g><use xlink:href="#c2MEgDuFgy" opacity="1" fill="#005151" fill-opacity="1"></use><g><use xlink:href="#c2MEgDuFgy" opacity="1" fill-opacity="0" stroke="#000000" stroke-width="1" stroke-opacity="0"></use></g></g><g><use xlink:href="#b267jiOrv" opacity="1" fill="#005151" fill-opacity="1"></use><g><use xlink:href="#b267jiOrv" opacity="1" fill-opacity="0" stroke="#000000" stroke-width="1" stroke-opacity="0"></use></g></g><g><use xlink:href="#d1D5uhJFeZ" opacity="1" fill="#005151" fill-opacity="1"></use><g><use xlink:href="#d1D5uhJFeZ" opacity="1" fill-opacity="0" stroke="#000000" stroke-width="1" stroke-opacity="0"></use></g></g><g><use xlink:href="#b2Kvah8i2z" opacity="1" fill="#ffffff" fill-opacity="1"></use><g><use xlink:href="#b2Kvah8i2z" opacity="1" fill-opacity="0" stroke="#000000" stroke-width="1" stroke-opacity="0"></use></g></g><g><use xlink:href="#aVVB4YCp2" opacity="1" fill="#ffffff" fill-opacity="1"></use><g><use xlink:href="#aVVB4YCp2" opacity="1" fill-opacity="0" stroke="#000000" stroke-width="1" stroke-opacity="0"></use></g></g><g><use xlink:href="#a58wlUdmoJ" opacity="1" fill="#ffffff" fill-opacity="1"></use><g><use xlink:href="#a58wlUdmoJ" opacity="1" fill-opacity="0" stroke="#000000" stroke-width="1" stroke-opacity="0"></use></g></g><g><use xlink:href="#c3sbtml4fV" opacity="1" fill="#ffffff" fill-opacity="1"></use><g><use xlink:href="#c3sbtml4fV" opacity="1" fill-opacity="0" stroke="#000000" stroke-width="1" stroke-opacity="0"></use></g></g><g><use xlink:href="#b3AgPxhvoz" opacity="1" fill="#ffffff" fill-opacity="1"></use><g><use xlink:href="#b3AgPxhvoz" opacity="1" fill-opacity="0" stroke="#000000" stroke-width="1" stroke-opacity="0"></use></g></g><g><use xlink:href="#aMULJvImZ" opacity="1" fill="#ffffff" fill-opacity="1"></use><g><use xlink:href="#aMULJvImZ" opacity="1" fill-opacity="0" stroke="#000000" stroke-width="1" stroke-opacity="0"></use></g></g><g><use xlink:href="#bk2hTF9f8" opacity="1" fill="#ffffff" fill-opacity="1"></use><g><use xlink:href="#bk2hTF9f8" opacity="1" fill-opacity="0" stroke="#000000" stroke-width="1" stroke-opacity="0"></use></g></g><g><use xlink:href="#a6fVzCu6Xk" opacity="1" fill="#ffffff" fill-opacity="1"></use><g><use xlink:href="#a6fVzCu6Xk" opacity="1" fill-opacity="0" stroke="#000000" stroke-width="1" stroke-opacity="0"></use></g></g><g><use xlink:href="#c23qBaet8J" opacity="1" fill="#ffffff" fill-opacity="1"></use><g><use xlink:href="#c23qBaet8J" opacity="1" fill-opacity="0" stroke="#000000" stroke-width="1" stroke-opacity="0"></use></g></g><g><use xlink:href="#g17Q5YEIuG" opacity="1" fill="#dc6957" fill-opacity="1"></use></g></g></g></svg>